<?xml version="1.0" encoding="UTF-8" standalone="no"?>
<!DOCTYPE svg PUBLIC "-//W3C//DTD SVG 1.1//EN" "http://www.w3.org/Graphics/SVG/1.1/DTD/svg11.dtd">
<svg width="100%" height="100%" viewBox="0 0 1440 780" version="1.1" xmlns="http://www.w3.org/2000/svg" xmlns:xlink="http://www.w3.org/1999/xlink" xml:space="preserve" xmlns:serif="http://www.serif.com/" style="fill-rule:evenodd;clip-rule:evenodd;stroke-linejoin:round;stroke-miterlimit:2;">
    <g transform="matrix(6.13999,0,0,5.07557,-1841.06,-5162.82)">
        <rect x="301.892" y="1019.59" width="232.483" height="151.278" style="fill-opacity:0.35;"/>
    </g>
    <g transform="matrix(6.13999,0,0,5.07543,-1853.62,-5174.85)">
        <rect x="301.892" y="1019.59" width="232.483" height="151.278" style="fill:rgb(177,44,44);"/>
    </g>
    <g transform="matrix(6.15599,0,0,6.15599,-1845.9,-5943.47)">
        <text x="330.53px" y="1062.11px" style="font-family:'Montserrat-Medium', 'Montserrat';font-weight:500;font-size:36px;fill-opacity:0.35;">s<tspan x="355.829px 387.608px 416.399px 448.214px 465.521px 487.112px " y="1062.11px 1062.11px 1062.11px 1062.11px 1062.11px 1062.11px ">hapiro</tspan></text>
    </g>
    <g transform="matrix(6.15599,0,0,6.15599,-1858.49,-6226.62)">
        <text x="330.53px" y="1106.11px" style="font-family:'Montserrat-Medium', 'Montserrat';font-weight:500;font-size:36px;fill:white;">s<tspan x="355.829px 387.608px 416.399px 448.214px 465.521px 487.112px " y="1106.11px 1106.11px 1106.11px 1106.11px 1106.11px 1106.11px ">hapiro</tspan></text>
    </g>
    <g transform="matrix(6.15599,0,0,6.15599,220.701,332.609)">
        <text x="0px" y="0px" style="font-family:'Montserrat-Medium', 'Montserrat';font-weight:500;font-size:36px;fill-opacity:0.35;">j<tspan x="17.487px 46.278px 67.869px 97.164px " y="0px 0px 0px 0px ">ared</tspan></text>
    </g>
    <g transform="matrix(6.15599,0,0,6.15599,-2862.51,-1256.78)">
        <text x="497.802px" y="256.234px" style="font-family:'Montserrat-Medium', 'Montserrat';font-weight:500;font-size:36px;fill:white;">j<tspan x="515.289px 544.08px 565.671px 594.966px " y="256.234px 256.234px 256.234px 256.234px ">ared</tspan></text>
    </g>
</svg>
